<svg width="1120" height="702" xmlns="http://www.w3.org/2000/svg" fill="none">
 <defs>
  <filter color-interpolation-filters="sRGB" filterUnits="userSpaceOnUse" height="820" width="1238" y="0" x="0" id="filter0_d_1_180">
   <feGaussianBlur stdDeviation="29.5"/>
  </filter>
  <clipPath id="clip0_1_180">
   <rect id="svg_1" x="111" y="281" fill="white" height="452.459" width="1016.1"/>
  </clipPath>
 </defs>
 <g>
  <title>Layer 1</title>
  <g id="svg_2" filter="url(#filter0_d_1_180)">
   <path id="svg_3" fill="#FFE0E2" d="m0,0l1120,0l0,702l-1120,0l0,-702z"/>
  </g>
  <path id="svg_4" fill="#FFEFF0" d="m721.796,40.8493l-4.108,-2.8493l-9.688,13.9696l4.109,2.8493l9.687,-13.9696zm-531.675,14.1507l4.961,0.6239l-2.121,16.8671l-4.961,-0.624l2.121,-16.867zm-81.399,22l2.5,4.33l-14.722,8.5l-2.5,-4.33l14.722,-8.5zm201.966,95l4.108,2.849l-9.687,13.97l-4.109,-2.849l9.688,-13.97zm-53.606,-54.376l-4.961,-0.624l-2.121,16.867l4.961,0.624l2.121,-16.867zm-174.519,14.376l-3.563,3.508l11.928,12.113l3.563,-3.508l-11.928,-12.113zm800.159,52l2.5,4.33l-14.722,8.5l-2.5,-4.33l14.722,-8.5zm209.498,-108.67l-2.5,-4.33l-14.72,8.5l2.5,4.33l14.72,-8.5zm-58.1,160.67l4.96,0.624l-2.12,16.867l-4.96,-0.624l2.12,-16.867zm51.96,212.624l-4.96,-0.624l-2.12,16.867l4.96,0.624l2.12,-16.867zm-186.08,-133.116l3.563,-3.508l11.928,12.113l-3.563,3.508l-11.928,-12.113zm-145.437,12.492l-3.563,3.508l11.928,12.113l3.563,-3.508l-11.928,-12.113zm-500.166,-82.463l-2.397,-4.388l14.92,-8.149l2.396,4.388l-14.919,8.149zm-82.013,8.691l4.945,0.741l2.52,-16.812l-4.944,-0.741l-2.521,16.812zm-88.439,-34.675l-4.945,-0.741l2.52,-16.812l4.945,0.741l-2.52,16.812zm458.055,192.259l4.945,0.741l2.52,-16.812l-4.945,-0.741l-2.52,16.812zm61.308,167.192l-2.572,4.288l-14.579,-8.743l2.572,-4.288l14.579,8.743zm-249.67,-340.189l3.644,-3.423l-11.637,-12.392l-3.645,3.423l11.638,12.392zm103.665,-171.815l4.109,2.849l-9.688,13.97l-4.108,-2.849l9.687,-13.97zm-14.906,171.537l-2.397,-4.388l14.92,-8.149l2.396,4.388l-14.919,8.149zm-134.397,-161.388l2.397,4.388l14.919,-8.149l-2.396,-4.388l-14.92,8.149zm59.945,58.82l-4.945,-0.741l2.52,-16.812l4.945,0.741l-2.52,16.812zm170.693,-45.154l3.644,-3.423l-11.637,-12.392l-3.645,3.423l11.638,12.392zm-357.545,365.727l-5.093,-0.719l2.516,-16.823l5.093,0.719l-2.516,16.823zm-72.865,-74.234l-4.221,-2.859l-10.007,13.945l4.221,2.86l10.007,-13.946zm110.772,-79.767l4.896,-1.541l5.391,16.173l-4.896,1.54l-5.391,-16.172zm376.896,16.459l-4.896,1.541l5.391,16.172l4.896,-1.54l-5.391,-16.173zm356.501,-229.463l-2.397,-4.388l14.92,-8.149l2.396,4.388l-14.919,8.149zm56.753,69.762l4.99,-0.338l-1.15,-16.961l-4.99,0.338l1.15,16.961zm-147.821,-71.33l-4.945,-0.741l2.521,-16.812l4.944,0.741l-2.52,16.812zm-84.391,101.132l2.436,-4.367l-14.847,-8.281l-2.436,4.366l14.847,8.282zm264.002,372.452l-4.94,-0.741l2.52,-16.812l4.94,0.741l-2.52,16.812zm-102.044,-335.553l-4.896,1.541l5.391,16.172l4.896,-1.54l-5.391,-16.173zm-109.896,147.541l4.896,-1.541l5.391,16.173l-4.896,1.54l-5.391,-16.172zm-495.212,128.459l-1.788,4.688l16.408,5.906l1.787,-4.689l-16.407,-5.905zm-0.563,-166.304l3.691,-3.4l12.054,12.601l-3.69,3.4l-12.055,-12.601zm27.875,12.936l-1.656,-4.737l-16.349,6.067l1.657,4.736l16.348,-6.066z" clip-rule="evenodd" fill-rule="evenodd"/>
  <path id="svg_5" fill="#FFE6E7" d="m796.615,95.961c1.132,-5.067 6.717,-7.73 11.367,-5.421l20.458,10.163c3.377,1.677 5.125,5.485 4.193,9.14l-4.964,19.48c-1.132,4.442 -5.757,7.026 -10.133,5.662l-20.677,-6.446c-3.974,-1.239 -6.334,-5.319 -5.427,-9.382l5.183,-23.196zm-672.788,65.059c-1.946,4.82 1.149,10.186 6.294,10.915l52.907,7.505c4.195,0.595 8.127,-2.184 8.965,-6.338l7.872,-39c0.894,-4.431 -2.058,-8.723 -6.516,-9.472l-45.011,-7.565c-3.702,-0.622 -7.339,1.413 -8.744,4.895l-15.767,39.06zm889.163,129.948c-1.83,4.86 1.39,10.15 6.54,10.765l64.44,7.686c4.12,0.491 7.92,-2.24 8.78,-6.295l12.74,-60.48c0.95,-4.502 -2.09,-8.874 -6.64,-9.56l-54.2,-8.168c-3.74,-0.562 -7.35,1.559 -8.68,5.089l-22.98,60.963zm-622.362,127.398c-0.949,5.104 -6.435,7.966 -11.164,5.824l-65.391,-29.607c-3.436,-1.555 -5.318,-5.298 -4.519,-8.984l13.453,-62.007c0.972,-4.48 5.502,-7.229 9.924,-6.022l65.651,17.91c4.016,1.096 6.521,5.088 5.759,9.181l-13.713,73.705zm-240.946,272.889c2.096,4.865 8.255,6.386 12.375,3.057l36.788,-29.723c3.019,-2.439 3.852,-6.693 1.976,-10.09l-37.815,-68.482c-2.331,-4.222 -7.839,-5.437 -11.73,-2.587l-31.382,22.984c-3.008,2.203 -4.095,6.194 -2.62,9.619l32.408,75.222zm709.921,-176.116c-4.256,2.98 -10.178,1.176 -12.051,-3.669l-7.377,-19.093c-1.361,-3.52 -0.076,-7.512 3.082,-9.578l13.412,-8.774c3.858,-2.524 9.046,-1.273 11.329,2.732l9.635,16.896c2.046,3.589 1.023,8.146 -2.362,10.516l-15.668,10.97zm219.427,173.208c5.3,0.174 9.29,-4.749 8.04,-9.892l-11.45,-46.88c-1.04,-4.293 -5.37,-6.923 -9.66,-5.875l-18.9,4.613c-4.24,1.035 -6.87,5.277 -5.9,9.534l9.39,41.58c0.8,3.552 3.9,6.114 7.54,6.234l20.94,0.686zm-945.47,-420.543c-0.107,-5.191 -5.054,-8.906 -10.069,-7.562l-22.958,6.153c-4.021,1.078 -6.544,5.059 -5.801,9.156l3.867,21.31c0.818,4.51 5.251,7.412 9.712,6.357l19.563,-4.625c3.67,-0.868 6.236,-4.18 6.158,-7.95l-0.472,-22.839z" clip-rule="evenodd" fill-rule="evenodd"/>
  <g id="svg_6" clip-path="url(#clip0_1_180)">
   <path id="svg_7" fill="#362E2D" d="m93.909,284.449l12.786,48.344l30.148,-8.865l-12.786,-48.344l-30.148,8.865z"/>
   <path id="svg_8" fill="white" d="m91.2,287.759l2.6,-3.058l28.7,-5.166l12.8,43.548l-10.8,25.623l-20.2,-13.919l-13.1,-47.028z"/>
   <path id="svg_9" fill="#4E3734" d="m112.8,306.423l12.8,44.286l-21.7,-14.657l-12.7,-48.293l21.6,18.664z"/>
   <path id="svg_10" fill="#F7F7F7" d="m93.8,285.545l26.8,-1.055l13,42.6l1.7,-4.007l-12.8,-43.548l-27.9,4.955l-0.8,1.055z"/>
   <path id="svg_11" fill="#8C503E" d="m213.9,356.087c16.845,0 30.5,-14.399 30.5,-32.161c0,-17.761 -13.655,-32.16 -30.5,-32.16c-16.845,0 -30.5,14.399 -30.5,32.16c0,17.762 13.655,32.161 30.5,32.161z"/>
   <path id="svg_12" fill="#FF6ED9" d="m353.2,628.342c0,0 3.8,10.018 5.5,15.501c1.7,5.483 4.7,12.337 7.2,12.547c2.5,0.211 3,-10.017 1.4,-25.622c-1.6,-15.501 -0.4,-17.715 -8.5,-17.609c-3.6,0 -5.6,-0.317 -5.6,-0.317l0,15.5z"/>
   <path id="svg_13" fill="#FF6ED9" d="m129.2,682.54c0,0 -10.9,1.793 -16.6,4.218c-5.7,2.425 -10.1,4.851 -10.1,7.803c0,2.32 10.4,1.582 26.6,1.582c16.6,0.105 21.3,0.527 18.4,-8.33c-1,-3.058 -3.6,-5.589 -3.6,-5.589l-14.7,0.316z"/>
   <path id="svg_14" fill="#4E3734" d="m244.4,323.926c0,-17.82 -13.7,-32.16 -30.5,-32.16c-4.6,0 -9,1.054 -12.9,3.058l-0.8,0.422c-1,2.003 -1.6,4.217 -1.6,6.643c0,7.697 5.9,13.918 13.2,13.918c0.6,0 1.2,-0.105 1.9,-0.105c-0.8,1.054 -1.2,2.425 -1.2,3.901c0,3.269 2.4,6.01 5.4,6.432c-0.3,0.844 -0.4,1.687 -0.4,2.531c0,4.007 3.1,7.275 6.9,7.275l0.1,0c0.6,2.953 3,5.062 6,5.062c0.8,0 1.6,-0.211 2.3,-0.422c0.4,2.214 2.3,3.901 4.5,3.901l1.7,-1.687c3.3,-5.272 5.4,-11.809 5.4,-18.769z"/>
   <path id="svg_15" fill="#8C503E" d="m122.8,361.781c0,0 0.6,-10.439 -2.3,-16.028c-2.9,-5.588 -9.1,-8.646 -12,-13.497c-2.8,-4.85 -2.7,-11.493 -5.4,-12.126c-2.7,-0.632 -7.2,10.756 -4.3,16.239c2.8,5.483 6.4,9.068 8.2,14.656c1.8,5.589 4.6,10.545 6.3,12.126c1.8,1.582 9.5,-1.37 9.5,-1.37z"/>
   <path id="svg_16" fill="#8C503E" d="m293.3,487.153c0,0 3.5,9.807 8.4,13.602c4.8,3.796 11.7,3.902 16.2,7.171c4.5,3.163 6.9,9.279 9.6,8.646c2.7,-0.633 2.3,-12.97 -2.4,-16.66c-4.7,-3.796 -9.4,-5.483 -13.2,-9.806c-3.8,-4.324 -8.3,-7.592 -10.5,-8.33c-2.2,-0.738 -8.1,5.377 -8.1,5.377z"/>
   <path id="svg_17" fill="#5441AF" d="m177.2,508.769c0,0 -19.5,42.916 -28,76.236c-11.2,44.075 -20,97.641 -20,97.641l14.6,-0.211c0,0 17.7,-21.721 43.3,-65.691c25.8,-44.392 37.5,-72.546 37.5,-72.546c0,0 17.3,65.797 28.6,76.131c15.8,14.445 52.7,13.813 64.4,12.969c11.7,-0.843 35.5,-4.85 35.5,-4.85l0,-15.5c0,0 -30,-5.062 -42,-10.334c-12,-5.272 -26.3,-9.595 -26.3,-9.595c0,0 -4.8,-35.218 -8.3,-53.882c-3.5,-18.664 -8.3,-40.069 -8.3,-40.069l-91,9.701z"/>
   <path id="svg_18" fill="#4F3D9D" d="m224.7,544.093l5.8,-12.864c0,0 3.3,6.854 2.9,15.605c-0.3,8.752 -2.1,20.456 -2.1,20.456l-6.6,-23.197z"/>
   <path id="svg_19" fill="#FF353A" d="m87,376.754c0,0 5.2,0.211 13.7,6.01c19,12.97 25.2,41.018 48.2,45.13c19.3,3.48 31.8,-2.636 31.8,-2.636c0,0 -7.5,22.67 -9.5,33.004c-2,10.333 -1.8,28.997 -9.8,37.221c-8,8.225 -11.7,12.126 -11.7,12.126c0,0 35,6.643 63.3,1.055c28.3,-5.589 43.7,-7.592 48.8,-7.381c5.2,0.211 13.2,1.265 13.2,1.265c0,0 -3.2,-7.592 -6.2,-15.289c-3,-7.698 -3.7,-15.501 -3.7,-15.501c0,0 19,16.028 22,21.3c3,5.272 3.5,14.024 3.5,14.024c0,0 4.3,-9.806 7.3,-13.18c3,-3.375 5.3,-7.381 9,-10.334c3.7,-2.952 5.8,-5.272 5.8,-5.272c0,0 -4,0.316 -7.5,-2.952c-3.5,-3.375 -23.2,-28.787 -27.2,-32.899c-4,-4.007 -19,-21.3 -19,-21.3c0,0 -1.8,-55.041 -32.7,-53.987c-19.5,0.633 -30.8,5.8 -43.2,12.864c-12.3,7.065 -23.2,14.763 -23.2,14.763c0,0 -21,-13.392 -28.3,-29.419c-2.5,-5.378 -3.6,-9.385 -3.6,-9.385c0,0 -7.7,1.476 -18.3,6.96c-11.3,6.01 -22.7,13.813 -22.7,13.813z"/>
   <path id="svg_20" fill="#E2303D" d="m180.7,425.258c0,0 10.9,-0.317 21.2,-3.585c10.3,-3.375 21.4,-8.541 24.1,-15.184c2.7,-6.643 3.9,-13.392 3.9,-13.392c0,0 1.9,11.072 -2.5,21.511c-4.4,10.439 -18.6,15.5 -23.9,17.504c-5.3,2.003 -26.7,5.588 -26.7,5.588l3.9,-12.442z"/>
   <path id="svg_21" fill="#E2303D" d="m260.2,432.955c0,0 1.6,18.558 2.3,24.041c0.7,5.483 2.8,14.973 2.8,14.973l5.2,4.429c0,0 -3.7,-11.704 -5.1,-20.034c-1.6,-8.33 -5.2,-23.409 -5.2,-23.409z"/>
   <path id="svg_22" fill="#5441AF" d="m221.4,501.494c-3.5,0 -6.3,-2.953 -6.3,-6.643c0,-3.691 2.8,-6.643 6.3,-6.643c3.5,0 6.3,2.952 6.3,6.643c0,3.69 -2.8,6.643 -6.3,6.643zm0,-12.232c-2.9,0 -5.3,2.531 -5.3,5.589c0,3.058 2.4,5.588 5.3,5.588c2.9,0 5.3,-2.53 5.3,-5.588c0,-3.058 -2.3,-5.589 -5.3,-5.589z"/>
   <path id="svg_23" fill="#5441AF" d="m249,395.101c2,0 3.8,-1.055 5,-2.636c-0.1,-0.422 -0.3,-0.844 -0.4,-1.266c-0.9,1.688 -2.6,2.742 -4.5,2.742c-2.9,0 -5.3,-2.531 -5.3,-5.589c0,-3.057 2.4,-5.588 5.3,-5.588c0.3,0 0.6,0 0.9,0.105c-0.2,-0.421 -0.4,-0.738 -0.6,-1.159c-0.1,0 -0.2,0 -0.3,0c-3.5,0 -6.3,2.952 -6.3,6.642c0,3.691 2.7,6.749 6.2,6.749z"/>
   <path id="svg_24" fill="#5441AF" d="m166.6,504.446c5,0 9.1,-4.323 9.1,-9.595c0,-5.273 -4,-9.49 -9,-9.596c-0.1,0.317 -0.2,0.738 -0.3,1.055c0.1,0 0.1,0 0.2,0c4.5,0 8.1,3.796 8.1,8.541c0,4.745 -3.6,8.541 -8.1,8.541c-3.4,0 -6.4,-2.32 -7.6,-5.484c-0.3,0.317 -0.5,0.528 -0.8,0.844c1.5,3.374 4.7,5.694 8.4,5.694z"/>
   <path id="svg_25" fill="#5441AF" d="m191,399.951c-4,0 -7.2,-3.374 -7.2,-7.592c0,-4.217 3.2,-7.592 7.2,-7.592c4,0 7.2,3.375 7.2,7.592c0,4.218 -3.3,7.592 -7.2,7.592zm0,-14.024c-3.4,0 -6.2,2.953 -6.2,6.538c0,3.585 2.8,6.537 6.2,6.537c3.4,0 6.2,-2.952 6.2,-6.537c0,-3.585 -2.8,-6.538 -6.2,-6.538z"/>
   <path id="svg_26" fill="#5441AF" d="m133.8,385.927c-2.5,0 -4.6,-2.214 -4.6,-4.85c0,-2.636 2.1,-4.851 4.6,-4.851c2.5,0 4.6,2.215 4.6,4.851c0,2.636 -2.1,4.85 -4.6,4.85zm0,-8.646c-2,0 -3.6,1.687 -3.6,3.796c0,2.109 1.6,3.796 3.6,3.796c2,0 3.6,-1.687 3.6,-3.796c0,-2.109 -1.6,-3.796 -3.6,-3.796z"/>
   <path id="svg_27" fill="#5441AF" d="m281.9,446.874c-0.6,1.16 -1.8,1.898 -3.1,1.898c-2,0 -3.6,-1.687 -3.6,-3.796c0,-1.476 0.8,-2.742 2,-3.374c-0.2,-0.211 -0.5,-0.528 -0.7,-0.739c-1.4,0.844 -2.3,2.426 -2.3,4.218c0,2.636 2.1,4.851 4.6,4.851c1.6,0 3,-0.844 3.8,-2.109c-0.2,-0.422 -0.4,-0.738 -0.7,-0.949z"/>
   <path id="svg_28" fill="#5441AF" d="m233.4,435.169c-2.5,0 -4.6,-2.214 -4.6,-4.85c0,-2.636 2.1,-4.85 4.6,-4.85c2.5,0 4.6,2.214 4.6,4.85c0,2.636 -2,4.85 -4.6,4.85zm0,-8.541c-2,0 -3.6,1.688 -3.6,3.796c0,2.109 1.6,3.796 3.6,3.796c2,0 3.6,-1.687 3.6,-3.796c0,-2.108 -1.6,-3.796 -3.6,-3.796z"/>
   <path id="svg_29" fill="#5441AF" d="m101.2,378.335c-1.6,0 -3,1.055 -3.7,2.426c0.3,0.21 0.6,0.316 0.9,0.527c0.5,-1.16 1.6,-1.898 2.8,-1.898c1.7,0 3.1,1.476 3.1,3.269c0,0.843 -0.3,1.687 -0.9,2.214c0.3,0.211 0.5,0.422 0.8,0.632c0.7,-0.738 1.1,-1.792 1.1,-2.846c0,-2.426 -1.8,-4.324 -4.1,-4.324z"/>
   <path id="svg_30" fill="#5441AF" d="m185.2,458.367c-3,0 -5.4,-2.531 -5.4,-5.694c0,-3.163 2.4,-5.694 5.4,-5.694c3,0 5.4,2.531 5.4,5.694c0,3.163 -2.4,5.694 -5.4,5.694zm0,-10.439c-2.4,0 -4.4,2.109 -4.4,4.64c0,2.53 2,4.639 4.4,4.639c2.4,0 4.4,-2.109 4.4,-4.639c0,-2.531 -1.9,-4.64 -4.4,-4.64z"/>
   <path id="svg_31" fill="#5441AF" d="m283.9,480.721c-2.2,0 -4.1,1.371 -5,3.374c0.3,0.211 0.5,0.528 0.8,0.738c0.6,-1.792 2.2,-3.163 4.2,-3.163c2.4,0 4.4,2.109 4.4,4.64c0,2.003 -1.2,3.69 -2.9,4.323c0.3,0.316 0.5,0.527 0.7,0.843c1.9,-0.949 3.2,-2.847 3.2,-5.166c0,-3.058 -2.4,-5.589 -5.4,-5.589z"/>
   <path id="svg_32" fill="#5441AF" d="m168.5,419.247c-2.3,0 -4.1,-1.898 -4.1,-4.323c0,-2.425 1.8,-4.323 4.1,-4.323c2.3,0 4.1,1.898 4.1,4.323c0,2.425 -1.8,4.323 -4.1,4.323zm0,-7.591c-1.7,0 -3.1,1.476 -3.1,3.268c0,1.793 1.4,3.269 3.1,3.269c1.7,0 3.1,-1.476 3.1,-3.269c0,-1.792 -1.4,-3.268 -3.1,-3.268z"/>
   <path id="svg_33" fill="#5441AF" d="m249,472.075c-3.2,0 -5.7,-2.742 -5.7,-6.01c0,-3.269 2.6,-6.011 5.7,-6.011c3.1,0 5.7,2.742 5.7,6.011c0,3.268 -2.5,6.01 -5.7,6.01zm0,-11.072c-2.6,0 -4.7,2.215 -4.7,4.956c0,2.742 2.1,4.956 4.7,4.956c2.6,0 4.7,-2.214 4.7,-4.956c0,-2.741 -2.1,-4.956 -4.7,-4.956z"/>
   <path id="svg_34" fill="#5441AF" d="m208.9,469.228c-1.7,0 -3,-1.476 -3,-3.164c0,-1.792 1.4,-3.163 3,-3.163c1.6,0 3,1.476 3,3.163c0,1.688 -1.3,3.164 -3,3.164zm0,-5.378c-1.1,0 -2,0.949 -2,2.109c0,1.16 0.9,2.109 2,2.109c1.1,0 2,-0.949 2,-2.109c0,-1.16 -0.9,-2.109 -2,-2.109z"/>
   <path id="svg_35" fill="#5441AF" d="m136.3,422.516c0.8,-1.054 1.3,-2.425 1.3,-4.007c0,-3.69 -2.8,-6.643 -6.3,-6.643c-1.6,0 -3.1,0.633 -4.2,1.688c0.2,0.316 0.5,0.527 0.7,0.843c0.9,-0.843 2.2,-1.476 3.5,-1.476c2.9,0 5.3,2.53 5.3,5.588c0,1.266 -0.4,2.426 -1.1,3.375c0.2,0.21 0.5,0.421 0.8,0.632z"/>
   <path id="svg_36" stroke-miterlimit="10" stroke="#5441AF" d="m113.3,686.126c0,0 1.1,0.632 1.8,1.792c0.7,1.16 0.5,2.953 0.5,2.953"/>
   <path id="svg_37" stroke-miterlimit="10" stroke="#5441AF" d="m117,684.544c0,0 1.1,0.633 1.8,1.792c0.7,1.16 0.5,2.953 0.5,2.953"/>
   <path id="svg_38" stroke-miterlimit="10" stroke="#5441AF" d="m120.6,683.595c0,0 1.1,0.633 1.8,1.792c0.7,1.16 0.5,2.953 0.5,2.953"/>
   <path id="svg_39" stroke-miterlimit="10" stroke="#5441AF" d="m123.9,682.435c0,0 1.1,0.633 1.8,1.793c0.7,1.159 0.5,2.952 0.5,2.952"/>
   <path id="svg_40" stroke-miterlimit="10" stroke="#5441AF" d="m357.9,643.105c0,0 0.5,-1.266 1.6,-2.004c1.1,-0.738 2.8,-0.633 2.8,-0.633"/>
   <path id="svg_41" stroke-miterlimit="10" stroke="#5441AF" d="m356.2,639.309c0,0 0.5,-1.266 1.6,-2.004c1.1,-0.738 2.8,-0.633 2.8,-0.633"/>
   <path id="svg_42" stroke-miterlimit="10" stroke="#5441AF" d="m355.2,635.513c0,0 0.5,-1.266 1.6,-2.004c1.1,-0.738 2.8,-0.633 2.8,-0.633"/>
   <path id="svg_43" stroke-miterlimit="10" stroke="#5441AF" d="m353.9,632.138c0,0 0.5,-1.265 1.6,-2.003c1.1,-0.738 2.8,-0.633 2.8,-0.633"/>
   <path id="svg_44" fill="#4F3D9D" d="m610.1,358.196l31.8,40.279l-14.8,22.987l-30.6,-38.065l13.6,-25.201z"/>
   <path id="svg_45" fill="white" d="m596.5,386.033l0.1,-2.425l13.6,-23.831l30.1,38.698l-10.3,15.606l-10.8,-4.534l-22.7,-23.514z"/>
   <path id="svg_46" fill="#F7F7F7" d="m649.5,429.792l1.5,-1.476l-27.2,-34.797l-27.3,-8.224l0,0.738l7.7,10.439l45.3,33.32z"/>
   <path id="svg_47" fill="#5441AF" d="m623.2,394.574l27.8,35.956l-25.3,-4.956l-29.2,-39.541l26.7,8.541z"/>
   <path id="svg_48" fill="#362E2D" d="m596.5,383.397l0,2.636l0.6,0.211l-0.1,-3.902l-0.5,1.055z"/>
   <path id="svg_49" fill="#FF6ED9" d="m687.6,527.855c0,0 -20.8,18.979 -28.8,26.888c-8,7.908 -12,11.071 -14,16.871c-2,5.799 -6.5,47.449 -7.3,60.419c-0.8,12.97 -1.5,40.912 -1.5,40.912l13.8,0c0,0 5,-18.453 10,-29.313c5,-10.861 12.3,-23.198 15.5,-32.688c3.2,-9.49 4.8,-22.459 4.8,-22.459c0,0 12.8,-1.266 27.8,-9.174c15,-7.908 21.3,-11.915 21.3,-11.915c0,0 9.3,19.507 17.3,35.851c8,16.344 11,21.405 18,28.47c7,7.064 34.2,19.401 46.7,23.408c17.3,5.483 32.4,7.592 32.4,7.592l2.5,-14.024c0,0 -20,-10.65 -30.9,-18.558c-10,-7.276 -18.3,-15.5 -20.8,-22.354c-2.5,-6.854 -6.1,-45.974 -9.3,-63.583c-3.2,-17.609 -9.5,-25.095 -9.5,-25.095l-88,8.752z"/>
   <path id="svg_50" fill="#FF5ED2" d="m729.1,567.396c0,0 4.1,-2.003 7.6,-4.323c3.5,-2.32 6.4,-4.851 6.4,-4.851c0,0 -0.8,5.8 -3.3,10.861c-2.5,5.061 -5.5,9.279 -5.5,9.279l-5.2,-10.966z"/>
   <path id="svg_51" fill="#5441AF" d="m692.4,573.828l-6,-4.956l4.7,-6.326l6,4.955l-4.7,6.327zm-4.6,-5.061l4.4,3.585l3.4,-4.64l-4.4,-3.585l-3.4,4.64z"/>
   <path id="svg_52" fill="#5441AF" d="m656.2,577.097l-4.7,-1.266l1.2,-4.955l4.7,1.265l-1.2,4.956zm-3.5,-2.004l2.8,0.738l0.7,-2.952l-2.8,-0.738l-0.7,2.952z"/>
   <path id="svg_53" fill="#5441AF" d="m725.1,552.423l-4.7,-1.265l1.2,-4.956l4.7,1.265l-1.2,4.956zm-3.5,-2.003l2.8,0.738l0.7,-2.953l-2.8,-0.738l-0.7,2.953z"/>
   <path id="svg_54" fill="#5441AF" d="m670.8,598.818l-6.4,-6.116l5.8,-6.748l6.4,6.116l-5.8,6.748zm-5,-6.116l4.9,4.745l4.5,-5.166l-4.9,-4.745l-4.5,5.166z"/>
   <path id="svg_55" fill="#5441AF" d="m756.4,553.583l-5.7,-5.272l5,-6.011l5.7,5.273l-5,6.01zm-4.3,-5.272l4.2,3.901l3.7,-4.429l-4.2,-3.901l-3.7,4.429z"/>
   <path id="svg_56" fill="#5441AF" d="m649.2,662.19l-4.7,-1.476l1.4,-4.956l4.7,1.476l-1.4,4.956zm-3.4,-2.214l2.7,0.843l0.8,-2.847l-2.7,-0.843l-0.8,2.847z"/>
   <path id="svg_57" fill="#5441AF" d="m642.9,642.577l-1.5,-7.486l7.1,-1.582l1.5,7.487l-7.1,1.581zm-0.3,-6.748l1.1,5.483l5.2,-1.16l-1.1,-5.483l-5.2,1.16z"/>
   <path id="svg_58" fill="#5441AF" d="m640.2,603.985c0,0.422 -0.1,0.949 -0.1,1.371l1.3,-0.844l2.5,4.007l-3.8,2.636l-0.5,-0.738c-0.1,0.527 -0.1,1.16 -0.2,1.687l0.3,0.527l5.5,-3.69l-3.5,-5.8l-1.5,0.844z"/>
   <path id="svg_59" fill="#5441AF" d="m678.2,542.089l-4.5,2.847l-1.6,-2.741c-0.3,0.211 -0.5,0.422 -0.8,0.738l2,3.48l6.2,-3.902l-2.7,-4.639c-0.3,0.211 -0.5,0.421 -0.8,0.738l2.2,3.479z"/>
   <path id="svg_60" fill="#5441AF" d="m768.5,606.516l-4.8,-6.222l5.9,-5.061l4.8,6.221l-5.9,5.062zm-3.3,-6.011l3.5,4.534l4.3,-3.69l-3.5,-4.534l-4.3,3.69z"/>
   <path id="svg_61" fill="#5441AF" d="m771.3,630.24l-4.3,-2.319l2.2,-4.534l4.3,2.319l-2.2,4.534zm-3,-2.741l2.6,1.371l1.3,-2.742l-2.6,-1.371l-1.3,2.742z"/>
   <path id="svg_62" fill="#5441AF" d="m776,567.923l-4.3,-2.32l2.2,-4.534l4.3,2.32l-2.2,4.534zm-3,-2.847l2.6,1.371l1.3,-2.742l-2.6,-1.37l-1.3,2.741z"/>
   <path id="svg_63" fill="#5441AF" d="m796.8,612.737c-0.2,-0.317 -0.4,-0.527 -0.6,-0.844l-3.6,2.636l-3.8,-5.799l4.7,-3.374c-0.1,-0.317 -0.2,-0.738 -0.2,-1.16l-5.8,4.218l4.9,7.486l4.4,-3.163z"/>
   <path id="svg_64" fill="#5441AF" d="m833.6,652.278l-7.3,-0.105l0.1,-7.698l7.3,0.106l-0.1,7.697zm-6.3,-1.16l5.3,0.106l0.1,-5.589l-5.3,-0.105l-0.1,5.588z"/>
   <path id="svg_65" fill="#5441AF" d="m799,649.115l-2.2,-6.538l6.2,-2.319l2.2,6.537l-6.2,2.32zm-0.9,-5.905l1.5,4.534l4.3,-1.582l-1.5,-4.534l-4.3,1.582z"/>
   <path id="svg_66" fill="#5441AF" d="m740.3,590.699l9.1,3.691l-3.1,8.54c0,0.106 0.1,0.211 0.1,0.211c0.2,0.317 0.3,0.633 0.5,1.055l3.8,-10.439l-11.1,-4.534c0.2,0.527 0.4,0.949 0.7,1.476z"/>
   <path id="svg_67" fill="#5441AF" d="m659,624.546l5.5,8.014l1.3,-1.054c0.4,-0.738 0.7,-1.371 1.1,-2.109l-2.2,1.687l-4.3,-6.327l6,-4.534l3,4.323c0.2,-0.316 0.3,-0.738 0.5,-1.054l-3.2,-4.745l-7.7,5.799z"/>
   <path id="svg_68" fill="#DF8E89" d="m730.8,383.608c16.845,0 30.5,-14.399 30.5,-32.161c0,-17.761 -13.655,-32.16 -30.5,-32.16c-16.845,0 -30.5,14.399 -30.5,32.16c0,17.762 13.655,32.161 30.5,32.161z"/>
   <path id="svg_69" fill="#5441AF" d="m636.1,672.84c0,0 0.3,4.007 -1.3,4.85c-3.1,1.898 -8.2,4.956 -11.1,6.959c-4.3,2.953 -9.6,8.12 -9.1,10.756c0.5,2.53 9.6,0.211 22.8,-5.167c13.2,-5.272 15.7,-3.796 13.4,-12.021c-1,-3.69 -1.3,-5.694 -1.3,-5.694l-13.4,0.317z"/>
   <path id="svg_70" fill="#5441AF" d="m843.4,662.612c0,0 3.7,0.527 4.3,2.319c1.1,3.586 3,9.49 4.3,12.865c1.9,5.061 5.7,11.493 8.2,11.493c2.5,0 2.1,-9.912 -0.2,-24.568c-2.3,-14.657 -0.4,-16.977 -8.5,-16.239c-3.6,0.317 -5.5,0.211 -5.5,0.211l-2.6,13.919z"/>
   <path id="svg_71" fill="#DF8E89" d="m638.9,431.69c0,0 -2.3,-10.123 -6.7,-14.551c-4.3,-4.429 -11.1,-5.483 -15.2,-9.174c-4.1,-3.69 -5.8,-10.123 -8.5,-9.912c-2.7,0.211 -3.8,12.548 0.4,16.871c4.2,4.324 8.7,6.643 12,11.494c3.3,4.85 7.4,8.646 9.4,9.595c2,0.949 8.6,-4.323 8.6,-4.323z"/>
   <path id="svg_72" fill="#DF8E89" d="m790.7,321.079c0,0 -0.2,-7.17 2.7,-12.758c2.9,-5.589 11.1,-8.963 13.9,-13.813c2.8,-4.851 7.4,-9.701 10.1,-10.334c2.7,-0.633 2.5,8.119 -0.3,13.602c-2.8,5.483 -8.9,6.854 -10.7,12.548c-1.8,5.694 -4.6,10.545 -6.2,12.126c-1.7,1.476 -9.5,-1.371 -9.5,-1.371z"/>
   <path id="svg_73" fill="#FF353A" d="m709.2,315.385c0,0 -2,13.181 9.1,20.351c11.1,7.17 18.9,3.585 18.9,3.585c0,0 -2.3,12.759 4.9,22.776c7.2,10.017 10.4,12.021 10.4,12.021c0,0 17.9,-13.814 13.9,-28.681c-2.3,-8.436 -7.7,-10.439 -7.7,-10.439c0,0 0.3,-8.33 -8,-14.762c-8.3,-6.432 -24.3,-1.16 -31,-1.582c-6.7,-0.422 -10.5,-3.269 -10.5,-3.269z"/>
   <path id="svg_74" fill="#5441AF" d="m629.1,438.227l9.5,-10.544l7,7.697c0,0 9.8,1.898 14.6,3.585c4.8,1.688 8.9,4.535 8.9,4.535c0,0 22.9,-22.038 35.1,-28.47c12.2,-6.538 31.2,-10.545 46,-18.242c14.8,-7.697 28,-22.46 28,-22.46c0,0 5,-16.66 6.8,-23.408c1.8,-6.643 4,-18.453 4,-18.453l0,-11.704l13,0l0,10.755c0,0 4,11.283 5.2,30.368c1.2,19.191 -3.2,34.586 -3.2,34.586c0,0 -17.5,17.082 -23.7,23.514c-6.2,6.537 -14.3,15.5 -14.3,15.5c0,0 5.7,21.616 10.5,43.759c4.8,22.143 5.7,42.178 5.7,42.178c0,0 -21.3,16.871 -50.7,17.925c-29.4,1.054 -48.8,-11.283 -48.8,-11.283c0,0 0.3,-18.241 1.7,-30.367c1.3,-12.126 7.3,-30.052 7.3,-30.052c0,0 -5,6.01 -9.7,9.701c-4.7,3.691 -10,6.643 -10,6.643c0,0 -14.2,-5.061 -22.8,-16.871c-8.7,-11.81 -12.7,-21.827 -12.7,-21.827l-7.4,-7.065z"/>
   <path id="svg_75" fill="#4F3D9D" d="m691.7,467.752c0,0 5.6,-17.188 8.8,-26.678c3.2,-9.49 4.7,-13.075 4.7,-13.075c0,0 -7.8,7.803 -12.2,20.773c-4.4,12.969 -7.7,25.939 -7.7,25.939l6.4,-6.959z"/>
   <path id="svg_76" fill="#FF5ED2" d="m532.2,525.64l2.1,-4.007l32.8,-20.139l12.9,24.146l-0.6,2.953l-34.1,20.878l-13.1,-23.831z"/>
   <path id="svg_77" fill="#FF6ED9" d="m566.429,504.824l-34.207,20.825l13,23.741l34.207,-20.825l-13,-23.741z"/>
   <path id="svg_78" fill="#4E3734" d="m398.2,681.17c0,0 -5.6,-36.168 -0.3,-71.597c5.4,-35.956 14.5,-73.494 14.5,-73.494c0,0 28.8,6.327 49.3,2.32c20.5,-4.007 45,-11.283 45,-11.283c0,0 4.2,20.351 6.6,44.603c2.3,24.252 0.8,20.562 4.1,32.477c3.3,11.915 14.9,46.711 19.2,56.939c4.4,10.228 9.1,22.882 9.1,22.882l-15.3,0c0,0 -30.2,-33.215 -43,-53.249c-12.8,-20.035 -28.6,-55.569 -28.6,-55.569c0,0 -17,37.116 -23.9,52.511c-6.9,15.5 -24.2,56.939 -24.2,56.939l-12.5,-3.479z"/>
   <path id="svg_79" fill="#DF8E89" d="m460.9,401.111c16.127,0 29.2,-13.785 29.2,-30.789c0,-17.005 -13.073,-30.79 -29.2,-30.79c-16.127,0 -29.2,13.785 -29.2,30.79c0,17.004 13.073,30.789 29.2,30.789z"/>
   <path id="svg_80" fill="#4E3734" d="m485.9,386.349c2.7,-4.64 4.3,-10.228 4.3,-16.027c0,-17.082 -13.1,-30.79 -29.2,-30.79c-6,0 -11.5,1.898 -16.1,5.167c0,0 -3.2,11.071 4.6,18.347c7.9,7.381 16.4,3.163 16.4,3.163c0,0 -3.3,10.65 5.3,17.293c7.3,5.694 14.7,2.847 14.7,2.847z"/>
   <path id="svg_81" fill="#4E3734" d="m489.2,357.879c13.807,0 25,-11.802 25,-26.361c0,-14.558 -11.193,-26.361 -25,-26.361c-13.807,0 -25,11.803 -25,26.361c0,14.559 11.193,26.361 25,26.361z"/>
   <path id="svg_82" fill="#362E2D" d="m462.1,557.801c0,0 -1,7.17 -1.8,10.966c-0.8,3.796 -1.6,6.537 -1.6,6.537l8.6,18.453c0,0 0.4,-15.289 -1.2,-23.83c-1.6,-8.541 -4,-12.126 -4,-12.126z"/>
   <path id="svg_83" fill="#FF353A" d="m398.2,681.17c0,0 -9.9,1.792 -15,2.425c-5.1,0.633 -11.7,2.425 -12.3,4.956c-0.6,2.53 8.2,5.061 22,6.643c13.8,1.476 15,3.163 16.2,-5.062c0.5,-3.796 1.4,-5.272 1.4,-5.272l-12.3,-3.69z"/>
   <path id="svg_84" fill="#FF353A" d="m532.9,684.228c0,0 -9.1,1.687 -13.9,3.796c-4.8,2.108 -8.5,4.323 -8.5,6.959c0,2.003 8.7,1.371 22.3,1.476c13.9,0.105 17.8,0.422 15.4,-7.486c-0.8,-2.742 -3.1,-4.956 -3.1,-4.956l-12.2,0.211z"/>
   <path id="svg_85" fill="#DF8E89" d="m369.5,465.01c0,0 -4.6,-6.01 -7.8,-7.908c-3.2,-1.898 -8.7,-4.007 -11.3,-5.589c-2.6,-1.581 -7.8,-5.272 -9.3,-2.847c-1.5,2.425 0.8,6.643 4.4,8.858c3.6,2.319 9.2,12.442 14.5,13.18c5.3,0.738 7.6,0.949 7.6,0.949l1.9,-6.643z"/>
   <path id="svg_86" fill="#DF8E89" d="m546.6,503.286c0,0 2.3,-0.949 5.7,2.636c3.4,3.585 6.6,11.81 7.8,14.868c1.2,3.058 1.5,6.116 2.6,8.224c1.1,2.215 1.4,4.534 0,5.378c-1.4,0.844 -5.6,-2.531 -8.9,-6.01c-3.3,-3.48 -7.3,-5.8 -9.4,-10.545c-2,-4.534 -1.8,-8.224 -1.8,-8.224l4,-6.327z"/>
   <path id="svg_87" fill="#7B6DCF" d="m371,460.16c0,0 15.6,2.952 21.1,4.007c5.5,1.054 12,2.319 12,2.319c0,0 15.5,-20.878 26.1,-32.371c10.6,-11.388 16.4,-19.296 32.1,-19.296c20.2,0 43.9,26.993 56.8,42.915c14.9,18.453 29.1,43.021 29.1,43.021l-7.8,12.443c0,0 -18.1,-14.446 -25.3,-18.664c-7.2,-4.217 -17.7,-9.806 -17.7,-9.806c0,0 3.8,10.861 6.4,22.987c2.6,12.126 3,19.296 3,19.296c0,0 -16.7,11.915 -46.1,13.708c-29.4,1.792 -48.2,-4.745 -48.2,-4.745c0,0 1.6,-11.915 3.3,-19.718c1.7,-7.698 3.6,-14.552 3.6,-14.552c0,0 -10.6,0.949 -24.3,-4.112c-17.8,-6.537 -28.9,-21.194 -28.9,-21.194l4.8,-16.238z"/>
   <path id="svg_88" fill="#6A5AC1" d="m419.3,501.81c0,0 -2.5,9.49 -3.2,12.864c-0.7,3.374 -1.5,7.592 -1.5,7.592c0,0 31.4,-32.371 38.2,-40.28c6.8,-7.908 18.9,-21.932 18.6,-34.269c-0.3,-12.337 -2.6,-15.078 -2.6,-15.078c0,0 1.4,7.908 -1.3,16.027c-3.8,11.283 -19.6,25.939 -27.1,33.32c-6.2,6.222 -21.1,19.824 -21.1,19.824z"/>
   <path id="svg_89" fill="#6A5AC1" d="m488.4,451.619c0,0 4.1,12.442 5.7,18.241c1.6,5.8 3.2,14.868 3.2,14.868l6,3.269c0,0 -4.3,-13.181 -7,-20.456c-2.7,-7.276 -7.9,-15.922 -7.9,-15.922z"/>
   <path id="svg_90" fill="#FF6ED9" d="m491.8,493.164l-0.5,4.534l3.2,2.952l-4.1,0.844l-1.7,4.112l-2.1,-3.902l-4.3,-0.316l2.9,-3.374l-0.9,-4.323l3.8,1.792l3.7,-2.319z"/>
   <path id="svg_91" fill="#FF6ED9" d="m506.7,527.116c0,0 -0.1,-1.792 -0.5,-5.166l-2,2.53l-3.5,-0.316l1.9,3.163l-1.3,3.058c3.6,-2.003 5.4,-3.269 5.4,-3.269z"/>
   <path id="svg_92" fill="#FF6ED9" d="m423.4,444.976l1.6,2.952l1.3,-3.163l3.2,-0.738l-2.5,-2.215l0.4,-3.374l-2,1.266c-1.4,1.581 -2.8,3.268 -4.2,5.061l2.2,0.211z"/>
   <path id="svg_93" fill="#FF6ED9" d="m424,538.821l3.5,-0.844l-3.3,-2.847l0.4,-4.429l-3.6,2.426l-3.9,-1.687l1.1,4.323l-1.3,1.581c1.8,0.422 4.2,0.949 7.1,1.477z"/>
   <path id="svg_94" fill="#FF6ED9" d="m474.4,524.164l2.4,0.738l1.9,-1.792l0.1,2.636l2.2,1.37l-2.3,0.949l-0.6,2.531l-1.6,-2.003l-2.4,0.211l1.3,-2.215l-1,-2.425z"/>
   <path id="svg_95" fill="#FF6ED9" d="m426.4,473.024l3.1,0.843l2.5,-2.214l0.2,3.48l2.7,1.687l-3,1.265l-0.7,3.269l-2.1,-2.636l-3.2,0.316l1.8,-2.847l-1.3,-3.163z"/>
   <path id="svg_96" fill="#FF6ED9" d="m536.1,481.354l-0.3,0.211l-3.1,-0.844l1.3,3.163l-1.7,2.847l3.2,-0.316l2,2.636l0.7,-3.269l0.6,-0.21c-0.8,-1.371 -1.7,-2.742 -2.7,-4.218z"/>
   <path id="svg_97" fill="#FF6ED9" d="m461.7,479.772l1.7,0.422l1.3,-1.16l0.1,1.793l1.5,0.949l-1.6,0.632l-0.4,1.793l-1.1,-1.371l-1.7,0.211l0.9,-1.582l-0.7,-1.687z"/>
   <path id="svg_98" fill="#FF6ED9" d="m403,491.687l1.4,-1.054l0,-1.793l1.4,1.055l1.6,-0.633l-0.5,1.793l1.1,1.476l-1.8,0l-1,1.476l-0.5,-1.792l-1.7,-0.528z"/>
   <path id="svg_99" fill="#FF6ED9" d="m535.9,504.868l1.7,0.422l1.3,-1.16l0.1,1.792l1.5,0.949l-1.6,0.738l-0.4,1.793l-1.1,-1.476l-1.7,0.211l0.9,-1.582l-0.7,-1.687z"/>
   <path id="svg_100" fill="#FF6ED9" d="m461.7,423.149l1.7,0.527l1.3,-1.265l0.1,1.898l1.5,0.949l-1.6,0.632l-0.4,1.793l-1.1,-1.371l-1.7,0.106l0.9,-1.582l-0.7,-1.687z"/>
   <path id="svg_101" fill="#FF6ED9" d="m505.9,456.047l1.7,0.422l1.3,-1.16l0.1,1.793l1.5,0.949l-1.6,0.632l-0.4,1.793l-1.1,-1.371l-1.8,0.211l1,-1.582l-0.7,-1.687z"/>
   <path id="svg_102" fill="#FF6ED9" d="m381.6,473.551l2.9,0.844l2.3,-2.109l0.2,3.163l2.6,1.687l-2.8,1.16l-0.7,3.163l-1.9,-2.53l-3.1,0.316l1.7,-2.742l-1.2,-2.952z"/>
   <path id="svg_103" fill="#FF6ED9" d="m443.6,505.606l5.2,4.218l6.1,-2.215l-2.1,6.432l3.8,5.483l-6.4,-0.105l-3.8,5.589l-1.9,-6.538l-6.1,-2.109l5.3,-3.901l-0.1,-6.854z"/>
   <path id="svg_104" fill="#FF6ED9" d="m446,438.438l4.1,3.269l4.9,-1.687l-1.7,5.061l3.1,4.429l-5.2,-0.106l-3,4.324l-1.5,-5.167l-4.8,-1.582l4.2,-3.163l-0.1,-5.378z"/>
   <path id="svg_105" fill="#FF6ED9" d="m515.1,483.568l-2.8,-4.534l-1.7,5.061l-5,1.371l4,3.374l-0.1,2.636c0.7,0.422 1.4,0.739 2,1.16l2.1,-1.476l4.8,2.004l-1.4,-5.167l3.3,-4.218l-5.2,-0.211z"/>
   <path id="svg_106" fill="#FF6ED9" d="m482.9,438.438l5.7,-3.268l5.8,3.057l-1.2,-6.748l0.8,-0.844c-2.5,-2.214 -5.1,-4.323 -7.7,-6.221l-0.6,1.476l-6.4,1.16l4.7,4.64l-1.1,6.748z"/>
   <path id="svg_107" fill="#7B6DCF" d="m920.5,509.507c0,0 -3.8,39.015 11,84.672c14.8,45.657 32.8,88.151 32.8,88.151l15.3,0c0,0 2.5,-40.174 2,-66.535c-0.5,-26.361 -0.8,-46.185 -0.8,-46.185c0,0 11.9,12.232 18.5,16.66c6.6,4.429 14.4,4.113 23.5,2.215c9.1,-1.898 53.9,-13.603 53.9,-13.603l-1,-13.18c0,0 -19.5,-6.643 -31.6,-8.963c-12.1,-2.32 -25.8,-6.854 -25.8,-6.854c0,0 -5.9,-17.609 -12.9,-32.265c-7,-14.657 -9.8,-19.402 -9.8,-19.402l-75.1,15.289z"/>
   <path id="svg_108" fill="#6A5AC1" d="m980.8,569.61c0,0 -8.9,-7.592 -14.9,-14.446c-6,-6.853 -10.6,-14.34 -10.6,-14.34c0,0 6.4,15.711 14.6,24.252c7.6,8.014 11,10.017 11,10.017l-0.1,-5.483z"/>
   <path id="svg_109" fill="#FF6ED9" d="m973.3,594.495l-8.2,-7.697l10.4,0.421l-2.2,7.276z"/>
   <path id="svg_110" fill="#FF6ED9" d="m951.9,572.352l4,-6.749l0.9,7.487l-4.9,-0.738z"/>
   <path id="svg_111" fill="#FF6ED9" d="m973.1,667.357l-2.8,-7.487l6.3,3.691l-3.5,3.796z"/>
   <path id="svg_112" fill="#FF6ED9" d="m987.1,524.902l1.8,8.33l-7.5,-2.741l5.7,-5.589z"/>
   <path id="svg_113" fill="#FF6ED9" d="m955.8,644.792l4.8,-0.633l-2,4.639l-2.8,-4.006z"/>
   <path id="svg_114" fill="#FF6ED9" d="m1007.3,558.328l4.9,-0.738l-2.1,4.745l-2.8,-4.007z"/>
   <path id="svg_115" fill="#FF6ED9" d="m1027.2,566.974l3.6,-6.537l3.6,6.01l-7.2,0.527z"/>
   <path id="svg_116" fill="#FF6ED9" d="m1065.3,570.77l5,-4.956l2.8,4.534l-7.8,0.422z"/>
   <path id="svg_117" fill="#FF6ED9" d="m958.5,521.317l0.7,-5.167l3.7,3.48l-4.4,1.687z"/>
   <path id="svg_118" fill="#FF6ED9" d="m943.7,604.618l8.1,8.646l-11,2.636l2.9,-11.282z"/>
   <path id="svg_119" fill="#FF6ED9" d="m989.2,551.896l-3.8,11.493l-7.1,-9.279l10.9,-2.214z"/>
   <path id="svg_120" fill="#FF6ED9" d="m1044.8,557.59l9.3,9.173l-10.4,4.851l1.1,-14.024z"/>
   <path id="svg_121" fill="#FF6ED9" d="m937.5,535.025l7,9.173l2.5,-9.173l-9.5,0z"/>
   <path id="svg_122" fill="#FF6ED9" d="m1005.4,513.62c-0.2,-0.528 -0.5,-0.949 -0.7,-1.477l-3.2,-2.53l0.6,18.136l7.1,-5.799c-1.2,-2.742 -2.5,-5.589 -3.8,-8.33z"/>
   <path id="svg_123" fill="#FF6ED9" d="m920.1,522.688c0,2.425 0.1,5.061 0.2,8.014l4.7,0.738l-4.5,-9.069l-0.4,0.317z"/>
   <path id="svg_124" fill="#FF6ED9" d="m981.6,625.495c0,-3.374 0,-6.643 -0.1,-9.7c0,-0.633 0,-1.266 0,-1.898l-15.4,5.166l15.5,6.432z"/>
   <path id="svg_125" fill="#FF6ED9" d="m1022.1,575.093l-11.9,8.541l9.1,5.589c1.1,-0.211 2.2,-0.422 3.4,-0.633c0.9,-0.211 2.3,-0.527 3.9,-0.843l-4.5,-12.654z"/>
   <path id="svg_126" fill="#FF6ED9" d="m926.6,576.78l10.6,0l-9.6,-20.877l-2.9,12.547c0.7,2.742 1.3,5.483 1.9,8.33z"/>
   <path id="svg_127" fill="#8C503E" d="m960.2,377.281c16.13,0 29.2,-13.785 29.2,-30.79c0,-17.004 -13.07,-30.789 -29.2,-30.789c-16.127,0 -29.2,13.785 -29.2,30.789c0,17.005 13.073,30.79 29.2,30.79z"/>
   <path id="svg_128" fill="#4E3734" d="m1076.5,574.882c0,0 2.6,10.967 4.2,16.239c1.6,5.167 4.6,11.704 7,11.809c2.5,0.106 3.1,-9.595 1.7,-24.357c-1.4,-14.762 -0.2,-16.766 -8.3,-16.66c-3.6,0 -5.5,-0.211 -5.5,-0.211l0.9,13.18z"/>
   <path id="svg_129" fill="#4E3734" d="m964.3,682.33c0,0 -10.4,2.319 -16.1,4.639c-5.7,2.32 -10.1,4.851 -10.1,7.803c0,2.32 10.4,1.582 26.6,1.582c16.6,0.105 21.3,0.527 18.4,-8.33c-1,-3.058 -3.5,-5.8 -3.5,-5.8l-15.3,0l0,0.106z"/>
   <path id="svg_130" fill="#8C503E" d="m906.1,305.79c0,0 -2.4,-7.486 -2.1,-11.599c0.3,-4.112 1.5,-10.439 1.7,-13.813c0.2,-3.374 0,-10.228 2.8,-10.439c2.8,-0.211 4.9,4.112 4.8,8.752c-0.1,4.64 5,15.289 2.7,20.772c-2.3,5.483 -3.4,7.803 -3.4,7.803l-6.5,-1.476z"/>
   <path id="svg_131" fill="#8C503E" d="m1077.1,392.887c0,0 7.1,-2.531 10,-5.167c2.9,-2.636 7,-7.487 9.5,-9.701c2.5,-2.214 7.8,-6.221 6.2,-8.646c-1.6,-2.426 -6.1,-1.687 -9.6,1.265c-3.4,2.847 -14.6,4.956 -17.4,10.123c-2.8,5.166 -3.8,7.591 -3.8,7.591l5.1,4.535z"/>
   <path id="svg_132" fill="#FF6ED9" d="m900.3,303.892l16.5,4.007c0,0 -1.6,42.388 -0.3,48.188c1.8,7.592 31.8,32.687 31.8,32.687c0,0 32.5,0.317 43,4.534c10.5,4.218 21.5,11.915 31.5,12.654c10,0.738 46.8,-22.144 46.8,-22.144l11.8,12.654c0,0 -10.5,14.656 -17.8,21.932c-9.5,9.49 -25,22.67 -35.8,24.252c-10.8,1.582 -44.3,-11.599 -44.3,-11.599c0,0 7.5,27.416 13.2,39.331c5.8,11.915 11.3,20.561 11.3,20.561c0,0 -25.9,16.344 -47.8,20.878c-21.9,4.534 -46.7,0 -46.7,0c0,0 -6.8,-19.296 -1.5,-50.613c5.3,-31.317 9,-39.014 9,-39.014c0,0 -26.3,-37.644 -30.5,-53.038c-4.2,-15.395 9.8,-65.27 9.8,-65.27z"/>
   <path id="svg_133" fill="#FF5ED2" d="m969.8,415.241c0,0 4.8,7.697 8.2,10.86c3.3,3.058 5.6,4.956 5.6,4.956l5.1,17.293c0,0 -9.3,-7.276 -12.8,-14.446c-3.7,-7.275 -6.1,-18.663 -6.1,-18.663z"/>
   <path id="svg_134" fill="#FF5ED2" d="m921,421.989c0,0 3.6,-10.65 9.9,-18.453c7.2,-8.751 17.3,-14.762 17.3,-14.762l-3.3,-2.741c0,0 -9.1,3.69 -17.2,13.18c-7,8.225 -9.9,18.347 -9.9,18.347l3.2,4.429z"/>
   <path id="svg_135" fill="white" d="m989.5,346.491c0,-17.082 -13.1,-30.789 -29.2,-30.789c-6.6,0 -12.8,2.319 -17.7,6.326c0,0 -7.1,10.017 2.7,16.45c9.8,6.432 16.6,1.687 16.6,1.687c0,0 2.5,2.319 2.3,6.432c-0.5,7.697 -10.3,9.49 -10.1,19.401c0.3,13.708 14.8,11.599 14.8,18.875c0,6.326 -7.7,10.228 -8.4,18.663c-0.7,8.647 3.2,15.079 9.2,16.45c19.6,4.534 25.8,-19.508 26.8,-26.256c1,-6.748 -1.4,-19.823 -5,-32.582c-1.1,-4.112 -2,-14.657 -2,-14.657z"/>
   <path id="svg_136" fill="#4F3D9D" d="m922.034,245.78l-40.098,27.048l16.867,27.802l40.099,-27.048l-16.868,-27.802z"/>
   <path id="svg_137" fill="white" d="m918.1,244l3.6,1.687l13.1,27.521l-35.8,25.623l-19.7,5.061l0,-32.898l38.8,-26.994z"/>
   <path id="svg_138" fill="#5441AF" d="m918.3,277.637l-40.1,27.099l-0.1,-33.742l40,-26.994l0.2,33.637z"/>
   <path id="svg_139" fill="#4F3D9D" d="m918.1,244l3.8,1.898l0.2,0.633l-4,-1.582l0,-0.949z"/>
   <path id="svg_140" fill="#F7F7F7" d="m920.9,246.003l8.9,26.783l-38.2,27.943l7.4,-1.898l35.8,-25.623l-12.7,-26.677l-1.2,-0.528z"/>
   <path id="svg_141" fill="#8C503E" d="m911.5,297.038l0.7,-7.697l2.9,-2.004l0.8,3.164l-4.4,6.537z"/>
   <rect x="-6.69556" y="43.2385" id="svg_142" fill="#FFEFF0" transform="matrix(-0.710564 0.703633 -0.665093 -0.74676 129.282 539.751)" height="17.4978" width="5.12936"/>
  </g>
  <path id="svg_143" fill="#534FD2" d="m785.4,276l28.68,-42l7.14,0l-28.68,42l-7.14,0zm3.66,-19.32c-2.04,0 -3.84,-0.46 -5.4,-1.38c-1.56,-0.96 -2.8,-2.3 -3.72,-4.02c-0.88,-1.76 -1.32,-3.82 -1.32,-6.18c0,-2.36 0.44,-4.4 1.32,-6.12c0.92,-1.72 2.16,-3.06 3.72,-4.02c1.56,-0.96 3.36,-1.44 5.4,-1.44c2.04,0 3.84,0.48 5.4,1.44c1.56,0.96 2.78,2.3 3.66,4.02c0.88,1.72 1.32,3.76 1.32,6.12c0,2.36 -0.44,4.42 -1.32,6.18c-0.88,1.72 -2.1,3.06 -3.66,4.02c-1.56,0.92 -3.36,1.38 -5.4,1.38zm0,-4.92c1.32,0 2.38,-0.54 3.18,-1.62c0.8,-1.12 1.2,-2.8 1.2,-5.04c0,-2.24 -0.4,-3.9 -1.2,-4.98c-0.8,-1.12 -1.86,-1.68 -3.18,-1.68c-1.28,0 -2.34,0.56 -3.18,1.68c-0.8,1.08 -1.2,2.74 -1.2,4.98c0,2.2 0.4,3.86 1.2,4.98c0.84,1.12 1.9,1.68 3.18,1.68zm28.5,24.72c-2,0 -3.8,-0.46 -5.4,-1.38c-1.56,-0.96 -2.78,-2.3 -3.66,-4.02c-0.88,-1.76 -1.32,-3.82 -1.32,-6.18c0,-2.36 0.44,-4.4 1.32,-6.12c0.88,-1.72 2.1,-3.06 3.66,-4.02c1.6,-0.96 3.4,-1.44 5.4,-1.44c2.08,0 3.9,0.48 5.46,1.44c1.56,0.96 2.78,2.3 3.66,4.02c0.88,1.72 1.32,3.76 1.32,6.12c0,2.36 -0.44,4.42 -1.32,6.18c-0.88,1.72 -2.1,3.06 -3.66,4.02c-1.56,0.92 -3.38,1.38 -5.46,1.38zm0,-4.92c1.32,0 2.38,-0.54 3.18,-1.62c0.8,-1.12 1.2,-2.8 1.2,-5.04c0,-2.2 -0.4,-3.86 -1.2,-4.98c-0.8,-1.12 -1.86,-1.68 -3.18,-1.68c-1.28,0 -2.34,0.56 -3.18,1.68c-0.8,1.08 -1.2,2.74 -1.2,4.98c0,2.24 0.4,3.92 1.2,5.04c0.84,1.08 1.9,1.62 3.18,1.62z"/>
  <path id="svg_144" fill="white" d="m780.4,271l28.68,-42l7.14,0l-28.68,42l-7.14,0zm3.66,-19.32c-2.04,0 -3.84,-0.46 -5.4,-1.38c-1.56,-0.96 -2.8,-2.3 -3.72,-4.02c-0.88,-1.76 -1.32,-3.82 -1.32,-6.18c0,-2.36 0.44,-4.4 1.32,-6.12c0.92,-1.72 2.16,-3.06 3.72,-4.02c1.56,-0.96 3.36,-1.44 5.4,-1.44c2.04,0 3.84,0.48 5.4,1.44c1.56,0.96 2.78,2.3 3.66,4.02c0.88,1.72 1.32,3.76 1.32,6.12c0,2.36 -0.44,4.42 -1.32,6.18c-0.88,1.72 -2.1,3.06 -3.66,4.02c-1.56,0.92 -3.36,1.38 -5.4,1.38zm0,-4.92c1.32,0 2.38,-0.54 3.18,-1.62c0.8,-1.12 1.2,-2.8 1.2,-5.04c0,-2.24 -0.4,-3.9 -1.2,-4.98c-0.8,-1.12 -1.86,-1.68 -3.18,-1.68c-1.28,0 -2.34,0.56 -3.18,1.68c-0.8,1.08 -1.2,2.74 -1.2,4.98c0,2.2 0.4,3.86 1.2,4.98c0.84,1.12 1.9,1.68 3.18,1.68zm28.5,24.72c-2,0 -3.8,-0.46 -5.4,-1.38c-1.56,-0.96 -2.78,-2.3 -3.66,-4.02c-0.88,-1.76 -1.32,-3.82 -1.32,-6.18c0,-2.36 0.44,-4.4 1.32,-6.12c0.88,-1.72 2.1,-3.06 3.66,-4.02c1.6,-0.96 3.4,-1.44 5.4,-1.44c2.08,0 3.9,0.48 5.46,1.44c1.56,0.96 2.78,2.3 3.66,4.02c0.88,1.72 1.32,3.76 1.32,6.12c0,2.36 -0.44,4.42 -1.32,6.18c-0.88,1.72 -2.1,3.06 -3.66,4.02c-1.56,0.92 -3.38,1.38 -5.46,1.38zm0,-4.92c1.32,0 2.38,-0.54 3.18,-1.62c0.8,-1.12 1.2,-2.8 1.2,-5.04c0,-2.2 -0.4,-3.86 -1.2,-4.98c-0.8,-1.12 -1.86,-1.68 -3.18,-1.68c-1.28,0 -2.34,0.56 -3.18,1.68c-0.8,1.08 -1.2,2.74 -1.2,4.98c0,2.24 0.4,3.92 1.2,5.04c0.84,1.08 1.9,1.62 3.18,1.62z"/>
  <path id="svg_145" fill="#534FD2" d="m598.438,198.554c7.765,0 14.985,1.699 21.658,5.096c6.673,3.397 12.012,8.19 16.016,14.378c4.004,6.188 6.006,13.286 6.006,21.294c0,8.857 -2.305,16.683 -6.916,23.478c-4.489,6.795 -10.677,12.012 -18.564,15.652c-7.887,3.64 -16.623,5.46 -26.208,5.46c-12.255,0 -22.993,-2.366 -32.214,-7.098c-9.1,-4.732 -16.198,-11.769 -21.294,-21.112c-5.096,-9.343 -7.644,-20.809 -7.644,-34.398c0,-14.56 2.912,-27.179 8.736,-37.856c5.945,-10.677 14.196,-18.807 24.752,-24.388c10.677,-5.581 23.053,-8.372 37.128,-8.372c7.644,0 14.924,0.91 21.84,2.73c6.916,1.699 12.801,4.125 17.654,7.28l-15.47,30.03c-6.309,-4.489 -14.014,-6.734 -23.114,-6.734c-7.401,0 -13.529,1.881 -18.382,5.642c-4.732,3.64 -7.826,8.979 -9.282,16.016c6.673,-4.732 15.106,-7.098 25.298,-7.098zm-10.92,55.692c3.883,0 7.037,-1.153 9.464,-3.458c2.427,-2.305 3.64,-5.46 3.64,-9.464c0,-4.004 -1.213,-7.159 -3.64,-9.464c-2.427,-2.427 -5.581,-3.64 -9.464,-3.64c-3.883,0 -7.037,1.213 -9.464,3.64c-2.427,2.305 -3.64,5.46 -3.64,9.464c0,4.004 1.213,7.159 3.64,9.464c2.427,2.305 5.581,3.458 9.464,3.458zm119.78,29.666c-11.284,0 -21.294,-2.609 -30.03,-7.826c-8.614,-5.339 -15.409,-12.983 -20.384,-22.932c-4.853,-10.071 -7.28,-22.022 -7.28,-35.854c0,-13.832 2.427,-25.723 7.28,-35.672c4.975,-10.071 11.77,-17.715 20.384,-22.932c8.736,-5.339 18.746,-8.008 30.03,-8.008c11.284,0 21.234,2.669 29.848,8.008c8.736,5.217 15.531,12.861 20.384,22.932c4.975,9.949 7.462,21.84 7.462,35.672c0,13.832 -2.487,25.783 -7.462,35.854c-4.853,9.949 -11.648,17.593 -20.384,22.932c-8.614,5.217 -18.564,7.826 -29.848,7.826zm0,-34.398c9.707,0 14.56,-10.738 14.56,-32.214c0,-21.476 -4.853,-32.214 -14.56,-32.214c-9.706,0 -14.56,10.738 -14.56,32.214c0,21.476 4.854,32.214 14.56,32.214z"/>
  <path id="svg_146" fill="white" d="m577.43,270.912c-12.133,0 -22.811,-2.305 -32.032,-6.916c-9.1,-4.732 -16.259,-11.709 -21.476,-20.93c-5.096,-9.343 -7.644,-20.93 -7.644,-34.762c0,-14.924 2.973,-27.603 8.918,-38.038c5.945,-10.556 14.196,-18.625 24.752,-24.206c10.677,-5.581 22.993,-8.372 36.946,-8.372c7.523,0 14.742,0.91 21.658,2.73c7.037,1.699 12.983,4.125 17.836,7.28l-15.47,30.03c-3.761,-2.669 -7.583,-4.429 -11.466,-5.278c-3.761,-0.971 -7.644,-1.456 -11.648,-1.456c-8.615,0 -15.531,2.609 -20.748,7.826c-5.096,5.096 -7.644,12.558 -7.644,22.386c0,1.82 0,3.64 0,5.46c0,1.699 0,3.458 0,5.278l-9.828,-7.098c2.427,-4.125 5.278,-7.583 8.554,-10.374c3.276,-2.912 7.159,-5.096 11.648,-6.552c4.489,-1.577 9.707,-2.366 15.652,-2.366c7.765,0 14.924,1.699 21.476,5.096c6.673,3.276 12.012,7.947 16.016,14.014c4.125,6.067 6.188,13.286 6.188,21.658c0,9.1 -2.305,16.987 -6.916,23.66c-4.611,6.673 -10.859,11.83 -18.746,15.47c-7.765,3.64 -16.441,5.46 -26.026,5.46zm-2.912,-29.666c2.548,0 4.793,-0.485 6.734,-1.456c2.063,-1.092 3.64,-2.609 4.732,-4.55c1.092,-1.941 1.638,-4.247 1.638,-6.916c0,-4.004 -1.213,-7.159 -3.64,-9.464c-2.427,-2.427 -5.581,-3.64 -9.464,-3.64c-2.548,0 -4.793,0.546 -6.734,1.638c-1.941,1.092 -3.519,2.609 -4.732,4.55c-1.092,1.941 -1.638,4.247 -1.638,6.916c0,2.669 0.546,4.975 1.638,6.916c1.213,1.941 2.791,3.458 4.732,4.55c1.941,0.971 4.186,1.456 6.734,1.456zm119.78,29.666c-11.284,0 -21.294,-2.609 -30.03,-7.826c-8.614,-5.217 -15.409,-12.801 -20.384,-22.75c-4.853,-9.949 -7.28,-21.961 -7.28,-36.036c0,-14.075 2.427,-26.087 7.28,-36.036c4.975,-9.949 11.77,-17.533 20.384,-22.75c8.736,-5.217 18.746,-7.826 30.03,-7.826c11.284,0 21.234,2.609 29.848,7.826c8.736,5.217 15.531,12.801 20.384,22.75c4.975,9.949 7.462,21.961 7.462,36.036c0,14.075 -2.487,26.087 -7.462,36.036c-4.853,9.949 -11.648,17.533 -20.384,22.75c-8.614,5.217 -18.564,7.826 -29.848,7.826zm0,-34.398c2.791,0 5.278,-0.971 7.462,-2.912c2.184,-1.941 3.883,-5.278 5.096,-10.01c1.335,-4.732 2.002,-11.163 2.002,-19.292c0,-8.251 -0.667,-14.681 -2.002,-19.292c-1.213,-4.732 -2.912,-8.069 -5.096,-10.01c-2.184,-1.941 -4.671,-2.912 -7.462,-2.912c-2.79,0 -5.278,0.971 -7.462,2.912c-2.184,1.941 -3.943,5.278 -5.278,10.01c-1.213,4.611 -1.82,11.041 -1.82,19.292c0,8.129 0.607,14.56 1.82,19.292c1.335,4.732 3.094,8.069 5.278,10.01c2.184,1.941 4.672,2.912 7.462,2.912z"/>
  <path id="svg_147" fill="#534FD2" d="m365.94,183.48c-2.68,0 -5.08,-0.52 -7.2,-1.56c-2.08,-1.04 -3.7,-2.62 -4.86,-4.74c-1.16,-2.16 -1.74,-4.9 -1.74,-8.22l0,-18.24l9.36,0l0,16.86c0,2.68 0.56,4.66 1.68,5.94c1.16,1.24 2.78,1.86 4.86,1.86c1.44,0 2.72,-0.3 3.84,-0.9c1.12,-0.64 2,-1.6 2.64,-2.88c0.64,-1.32 0.96,-2.96 0.96,-4.92l0,-15.96l9.36,0l0,32.28l-8.88,0l0,-8.88l1.62,2.58c-1.08,2.24 -2.68,3.94 -4.8,5.1c-2.08,1.12 -4.36,1.68 -6.84,1.68zm46.651,0c-2.72,0 -5.1,-0.6 -7.14,-1.8c-2.04,-1.2 -3.64,-3.02 -4.8,-5.46c-1.12,-2.48 -1.68,-5.6 -1.68,-9.36c0,-3.8 0.54,-6.92 1.62,-9.36c1.08,-2.44 2.64,-4.26 4.68,-5.46c2.04,-1.2 4.48,-1.8 7.32,-1.8c3.04,0 5.76,0.7 8.16,2.1c2.44,1.36 4.36,3.28 5.76,5.76c1.44,2.48 2.16,5.4 2.16,8.76c0,3.4 -0.72,6.34 -2.16,8.82c-1.4,2.48 -3.32,4.4 -5.76,5.76c-2.4,1.36 -5.12,2.04 -8.16,2.04zm-19.08,11.16l0,-43.92l8.94,0l0,6.6l-0.18,9.6l0.6,9.54l0,18.18l-9.36,0zm17.46,-18.84c1.56,0 2.94,-0.36 4.14,-1.08c1.24,-0.72 2.22,-1.74 2.94,-3.06c0.76,-1.36 1.14,-2.96 1.14,-4.8c0,-1.88 -0.38,-3.48 -1.14,-4.8c-0.72,-1.32 -1.7,-2.34 -2.94,-3.06c-1.2,-0.72 -2.58,-1.08 -4.14,-1.08c-1.56,0 -2.96,0.36 -4.2,1.08c-1.24,0.72 -2.22,1.74 -2.94,3.06c-0.72,1.32 -1.08,2.92 -1.08,4.8c0,1.84 0.36,3.44 1.08,4.8c0.72,1.32 1.7,2.34 2.94,3.06c1.24,0.72 2.64,1.08 4.2,1.08zm54.158,7.68c-3.8,0 -6.76,-0.96 -8.88,-2.88c-2.12,-1.96 -3.18,-4.86 -3.18,-8.7l0,-28.32l9.36,0l0,28.2c0,1.36 0.36,2.42 1.08,3.18c0.72,0.72 1.7,1.08 2.94,1.08c1.48,0 2.74,-0.4 3.78,-1.2l2.52,6.6c-0.96,0.68 -2.12,1.2 -3.48,1.56c-1.32,0.32 -2.7,0.48 -4.14,0.48zm-17.04,-24.84l0,-7.2l22.38,0l0,7.2l-22.38,0zm44.279,24.84c-3.44,0 -6.5,-0.72 -9.18,-2.16c-2.64,-1.44 -4.74,-3.4 -6.3,-5.88c-1.52,-2.52 -2.28,-5.38 -2.28,-8.58c0,-3.24 0.76,-6.1 2.28,-8.58c1.56,-2.52 3.66,-4.48 6.3,-5.88c2.68,-1.44 5.74,-2.16 9.18,-2.16c3.4,0 6.44,0.72 9.12,2.16c2.68,1.4 4.78,3.34 6.3,5.82c1.52,2.48 2.28,5.36 2.28,8.64c0,3.2 -0.76,6.06 -2.28,8.58c-1.52,2.48 -3.62,4.44 -6.3,5.88c-2.68,1.44 -5.72,2.16 -9.12,2.16zm0,-7.68c1.56,0 2.96,-0.36 4.2,-1.08c1.24,-0.72 2.22,-1.74 2.94,-3.06c0.72,-1.36 1.08,-2.96 1.08,-4.8c0,-1.88 -0.36,-3.48 -1.08,-4.8c-0.72,-1.32 -1.7,-2.34 -2.94,-3.06c-1.24,-0.72 -2.64,-1.08 -4.2,-1.08c-1.56,0 -2.96,0.36 -4.2,1.08c-1.24,0.72 -2.24,1.74 -3,3.06c-0.72,1.32 -1.08,2.92 -1.08,4.8c0,1.84 0.36,3.44 1.08,4.8c0.76,1.32 1.76,2.34 3,3.06c1.24,0.72 2.64,1.08 4.2,1.08z"/>
  <path id="svg_148" fill="white" d="m360.94,178.48c-2.68,0 -5.08,-0.52 -7.2,-1.56c-2.08,-1.04 -3.7,-2.62 -4.86,-4.74c-1.16,-2.16 -1.74,-4.9 -1.74,-8.22l0,-18.24l9.36,0l0,16.86c0,2.68 0.56,4.66 1.68,5.94c1.16,1.24 2.78,1.86 4.86,1.86c1.44,0 2.72,-0.3 3.84,-0.9c1.12,-0.64 2,-1.6 2.64,-2.88c0.64,-1.32 0.96,-2.96 0.96,-4.92l0,-15.96l9.36,0l0,32.28l-8.88,0l0,-8.88l1.62,2.58c-1.08,2.24 -2.68,3.94 -4.8,5.1c-2.08,1.12 -4.36,1.68 -6.84,1.68zm46.651,0c-2.72,0 -5.1,-0.6 -7.14,-1.8c-2.04,-1.2 -3.64,-3.02 -4.8,-5.46c-1.12,-2.48 -1.68,-5.6 -1.68,-9.36c0,-3.8 0.54,-6.92 1.62,-9.36c1.08,-2.44 2.64,-4.26 4.68,-5.46c2.04,-1.2 4.48,-1.8 7.32,-1.8c3.04,0 5.76,0.7 8.16,2.1c2.44,1.36 4.36,3.28 5.76,5.76c1.44,2.48 2.16,5.4 2.16,8.76c0,3.4 -0.72,6.34 -2.16,8.82c-1.4,2.48 -3.32,4.4 -5.76,5.76c-2.4,1.36 -5.12,2.04 -8.16,2.04zm-19.08,11.16l0,-43.92l8.94,0l0,6.6l-0.18,9.6l0.6,9.54l0,18.18l-9.36,0zm17.46,-18.84c1.56,0 2.94,-0.36 4.14,-1.08c1.24,-0.72 2.22,-1.74 2.94,-3.06c0.76,-1.36 1.14,-2.96 1.14,-4.8c0,-1.88 -0.38,-3.48 -1.14,-4.8c-0.72,-1.32 -1.7,-2.34 -2.94,-3.06c-1.2,-0.72 -2.58,-1.08 -4.14,-1.08c-1.56,0 -2.96,0.36 -4.2,1.08c-1.24,0.72 -2.22,1.74 -2.94,3.06c-0.72,1.32 -1.08,2.92 -1.08,4.8c0,1.84 0.36,3.44 1.08,4.8c0.72,1.32 1.7,2.34 2.94,3.06c1.24,0.72 2.64,1.08 4.2,1.08zm54.158,7.68c-3.8,0 -6.76,-0.96 -8.88,-2.88c-2.12,-1.96 -3.18,-4.86 -3.18,-8.7l0,-28.32l9.36,0l0,28.2c0,1.36 0.36,2.42 1.08,3.18c0.72,0.72 1.7,1.08 2.94,1.08c1.48,0 2.74,-0.4 3.78,-1.2l2.52,6.6c-0.96,0.68 -2.12,1.2 -3.48,1.56c-1.32,0.32 -2.7,0.48 -4.14,0.48zm-17.04,-24.84l0,-7.2l22.38,0l0,7.2l-22.38,0zm44.279,24.84c-3.44,0 -6.5,-0.72 -9.18,-2.16c-2.64,-1.44 -4.74,-3.4 -6.3,-5.88c-1.52,-2.52 -2.28,-5.38 -2.28,-8.58c0,-3.24 0.76,-6.1 2.28,-8.58c1.56,-2.52 3.66,-4.48 6.3,-5.88c2.68,-1.44 5.74,-2.16 9.18,-2.16c3.4,0 6.44,0.72 9.12,2.16c2.68,1.4 4.78,3.34 6.3,5.82c1.52,2.48 2.28,5.36 2.28,8.64c0,3.2 -0.76,6.06 -2.28,8.58c-1.52,2.48 -3.62,4.44 -6.3,5.88c-2.68,1.44 -5.72,2.16 -9.12,2.16zm0,-7.68c1.56,0 2.96,-0.36 4.2,-1.08c1.24,-0.72 2.22,-1.74 2.94,-3.06c0.72,-1.36 1.08,-2.96 1.08,-4.8c0,-1.88 -0.36,-3.48 -1.08,-4.8c-0.72,-1.32 -1.7,-2.34 -2.94,-3.06c-1.24,-0.72 -2.64,-1.08 -4.2,-1.08c-1.56,0 -2.96,0.36 -4.2,1.08c-1.24,0.72 -2.24,1.74 -3,3.06c-0.72,1.32 -1.08,2.92 -1.08,4.8c0,1.84 0.36,3.44 1.08,4.8c0.76,1.32 1.76,2.34 3,3.06c1.24,0.72 2.64,1.08 4.2,1.08z"/>
  <path id="svg_149" fill="#1C2A39" d="m464.525,109l0,-17.5l8.2,0c2.1,0 3.7,0.417 4.8,1.25c1.1,0.817 1.65,1.917 1.65,3.3c0,0.933 -0.216,1.733 -0.65,2.4c-0.433,0.65 -1.016,1.158 -1.75,1.525c-0.716,0.35 -1.5,0.525 -2.35,0.525l0.45,-0.9c0.984,0 1.867,0.183 2.65,0.55c0.784,0.35 1.4,0.867 1.85,1.55c0.467,0.683 0.7,1.533 0.7,2.55c0,1.5 -0.575,2.667 -1.725,3.5c-1.15,0.833 -2.858,1.25 -5.125,1.25l-8.7,0zm3.25,-2.55l5.25,0c1.217,0 2.15,-0.2 2.8,-0.6c0.65,-0.4 0.975,-1.042 0.975,-1.925c0,-0.867 -0.325,-1.5 -0.975,-1.9c-0.65,-0.417 -1.583,-0.625 -2.8,-0.625l-5.5,0l0,-2.525l4.85,0c1.134,0 2,-0.2 2.6,-0.6c0.617,-0.4 0.925,-1 0.925,-1.8c0,-0.817 -0.308,-1.425 -0.925,-1.825c-0.6,-0.4 -1.466,-0.6 -2.6,-0.6l-4.6,0l0,12.4zm15.769,2.55l0,-17.5l3.25,0l0,14.75l9.15,0l0,2.75l-12.4,0zm12.515,0l7.875,-17.5l3.2,0l7.9,17.5l-3.4,0l-6.775,-15.775l1.3,0l-6.75,15.775l-3.35,0zm3.625,-4.05l0.875,-2.55l9.45,0l0.875,2.55l-11.2,0zm25.432,4.3c-1.334,0 -2.575,-0.217 -3.725,-0.65c-1.134,-0.45 -2.125,-1.075 -2.975,-1.875c-0.834,-0.817 -1.484,-1.775 -1.95,-2.875c-0.467,-1.1 -0.7,-2.3 -0.7,-3.6c0,-1.3 0.233,-2.5 0.7,-3.6c0.466,-1.1 1.125,-2.05 1.975,-2.85c0.85,-0.817 1.841,-1.442 2.975,-1.875c1.133,-0.45 2.375,-0.675 3.725,-0.675c1.433,0 2.741,0.25 3.925,0.75c1.183,0.483 2.183,1.208 3,2.175l-2.1,1.975c-0.634,-0.683 -1.342,-1.192 -2.125,-1.525c-0.784,-0.35 -1.634,-0.525 -2.55,-0.525c-0.917,0 -1.759,0.15 -2.525,0.45c-0.75,0.3 -1.409,0.725 -1.975,1.275c-0.55,0.55 -0.984,1.2 -1.3,1.95c-0.3,0.75 -0.45,1.575 -0.45,2.475c0,0.9 0.15,1.725 0.45,2.475c0.316,0.75 0.75,1.4 1.3,1.95c0.566,0.55 1.225,0.975 1.975,1.275c0.766,0.3 1.608,0.45 2.525,0.45c0.916,0 1.766,-0.167 2.55,-0.5c0.783,-0.35 1.491,-0.875 2.125,-1.575l2.1,2c-0.817,0.95 -1.817,1.675 -3,2.175c-1.184,0.5 -2.5,0.75 -3.95,0.75zm12.964,-4.375l-0.175,-3.85l9.175,-9.525l3.65,0l-7.625,8.1l-1.8,1.975l-3.225,3.3zm-2.9,4.125l0,-17.5l3.25,0l0,17.5l-3.25,0zm12.2,0l-6.7,-7.975l2.15,-2.375l8.35,10.35l-3.8,0zm15.897,-9.45l8.725,0l0,2.75l-8.725,0l0,-2.75zm0.275,9.45l-3.25,0l0,-17.5l12.775,0l0,2.725l-9.525,0l0,14.775zm12.668,0l0,-17.5l7.2,0c1.55,0 2.875,0.25 3.975,0.75c1.116,0.5 1.975,1.217 2.575,2.15c0.6,0.933 0.9,2.042 0.9,3.325c0,1.283 -0.3,2.392 -0.9,3.325c-0.6,0.917 -1.459,1.625 -2.575,2.125c-1.1,0.483 -2.425,0.725 -3.975,0.725l-5.4,0l1.45,-1.475l0,6.575l-3.25,0zm11.45,0l-4.425,-6.35l3.475,0l4.45,6.35l-3.5,0zm-8.2,-6.225l-1.45,-1.55l5.25,0c1.433,0 2.508,-0.308 3.225,-0.925c0.733,-0.617 1.1,-1.475 1.1,-2.575c0,-1.117 -0.367,-1.975 -1.1,-2.575c-0.717,-0.6 -1.792,-0.9 -3.225,-0.9l-5.25,0l1.45,-1.6l0,10.125zm15.036,6.225l0,-17.5l3.25,0l0,17.5l-3.25,0zm7.983,0l0,-17.5l7.65,0c1.9,0 3.567,0.367 5,1.1c1.433,0.733 2.55,1.75 3.35,3.05c0.8,1.3 1.2,2.833 1.2,4.6c0,1.75 -0.4,3.283 -1.2,4.6c-0.8,1.3 -1.917,2.317 -3.35,3.05c-1.433,0.733 -3.1,1.1 -5,1.1l-7.65,0zm3.25,-2.75l4.25,0c1.317,0 2.45,-0.25 3.4,-0.75c0.967,-0.5 1.708,-1.2 2.225,-2.1c0.533,-0.9 0.8,-1.95 0.8,-3.15c0,-1.217 -0.267,-2.267 -0.8,-3.15c-0.517,-0.9 -1.258,-1.6 -2.225,-2.1c-0.95,-0.5 -2.083,-0.75 -3.4,-0.75l-4.25,0l0,12zm14.685,2.75l7.875,-17.5l3.2,0l7.9,17.5l-3.4,0l-6.775,-15.775l1.3,0l-6.75,15.775l-3.35,0zm3.625,-4.05l0.875,-2.55l9.45,0l0.875,2.55l-11.2,0zm20.826,4.05l0,-6.925l0.725,2l-7.6,-12.575l3.475,0l6.1,10.125l-1.95,0l6.15,-10.125l3.2,0l-7.6,12.575l0.75,-2l0,6.925l-3.25,0zm24.563,0.25c-1.367,0 -2.675,-0.192 -3.925,-0.575c-1.25,-0.4 -2.242,-0.908 -2.975,-1.525l1.125,-2.525c0.7,0.55 1.566,1.008 2.6,1.375c1.033,0.367 2.091,0.55 3.175,0.55c0.916,0 1.658,-0.1 2.225,-0.3c0.566,-0.2 0.983,-0.467 1.25,-0.8c0.266,-0.35 0.4,-0.742 0.4,-1.175c0,-0.533 -0.192,-0.958 -0.575,-1.275c-0.384,-0.333 -0.884,-0.592 -1.5,-0.775c-0.6,-0.2 -1.275,-0.383 -2.025,-0.55c-0.734,-0.167 -1.475,-0.358 -2.225,-0.575c-0.734,-0.233 -1.409,-0.525 -2.025,-0.875c-0.6,-0.367 -1.092,-0.85 -1.475,-1.45c-0.384,-0.6 -0.575,-1.367 -0.575,-2.3c0,-0.95 0.25,-1.817 0.75,-2.6c0.516,-0.8 1.291,-1.433 2.325,-1.9c1.05,-0.483 2.375,-0.725 3.975,-0.725c1.05,0 2.091,0.133 3.125,0.4c1.033,0.267 1.933,0.65 2.7,1.15l-1.025,2.525c-0.784,-0.467 -1.592,-0.808 -2.425,-1.025c-0.834,-0.233 -1.634,-0.35 -2.4,-0.35c-0.9,0 -1.634,0.108 -2.2,0.325c-0.55,0.217 -0.959,0.5 -1.225,0.85c-0.25,0.35 -0.375,0.75 -0.375,1.2c0,0.533 0.183,0.967 0.55,1.3c0.383,0.317 0.875,0.567 1.475,0.75c0.616,0.183 1.3,0.367 2.05,0.55c0.75,0.167 1.491,0.358 2.225,0.575c0.75,0.217 1.425,0.5 2.025,0.85c0.616,0.35 1.108,0.825 1.475,1.425c0.383,0.6 0.575,1.358 0.575,2.275c0,0.933 -0.259,1.8 -0.775,2.6c-0.5,0.783 -1.275,1.417 -2.325,1.9c-1.05,0.467 -2.375,0.7 -3.975,0.7zm7.822,-0.25l7.875,-17.5l3.2,0l7.9,17.5l-3.4,0l-6.775,-15.775l1.3,0l-6.75,15.775l-3.35,0zm3.625,-4.05l0.875,-2.55l9.45,0l0.875,2.55l-11.2,0zm17.576,4.05l0,-17.5l3.25,0l0,14.75l9.15,0l0,2.75l-12.4,0zm17.966,-10.225l8.7,0l0,2.675l-8.7,0l0,-2.675zm0.25,7.5l9.875,0l0,2.725l-13.125,0l0,-17.5l12.775,0l0,2.725l-9.525,0l0,12.05z"/>
  <path id="svg_150" d="m65,304" opacity="NaN" stroke="#000" fill="#fff"/>
 </g>
</svg>